<svg width="102" height="48" viewBox="0 0 102 48" fill="none" xmlns="http://www.w3.org/2000/svg">
<g clip-path="url(#clip0_185_6361)">
<path d="M94.7019 0H7.2981C3.26747 0 0 3.25236 0 7.26434V40.7357C0 44.7476 3.26747 48 7.2981 48H94.7019C98.7325 48 102 44.7476 102 40.7357V7.26434C102 3.25236 98.7325 0 94.7019 0Z" fill="#282828"/>
<path d="M27.1194 24.1998C27.119 24.9775 26.9647 25.7475 26.6652 26.4659C26.3658 27.1842 25.927 27.8368 25.374 28.3862C24.8211 28.9357 24.1647 29.3713 23.4425 29.6682C22.7203 29.965 21.9465 30.1173 21.1651 30.1163H9.46826V17.4887C9.46826 14.486 12.0004 12.0544 15.1267 12.0544V24.1998H27.1194Z" fill="white"/>
<path d="M27.1167 35.9438H14.6217C13.2522 35.9438 11.9388 35.4023 10.9704 34.4384C10.002 33.4745 9.45795 32.1671 9.45795 30.804H21.9529C23.3225 30.804 24.6359 31.3455 25.6043 32.3094C26.5727 33.2733 27.1167 34.5806 27.1167 35.9438Z" fill="white"/>
<path d="M33.4817 17.1914H20.9867C19.6172 17.1914 18.3038 16.6499 17.3354 15.6859C16.367 14.722 15.8229 13.4147 15.8229 12.0515L28.3179 12.0515C29.6875 12.0515 31.0009 12.593 31.9693 13.5569C32.9377 14.5209 33.4817 15.8282 33.4817 17.1914Z" fill="white"/>
<path d="M33.4716 17.8845V30.5121C33.4716 33.5148 30.9394 35.9464 27.8131 35.9464V23.5092H15.8281C15.8274 22.0185 16.4215 20.5887 17.4798 19.5339C18.538 18.4791 19.9737 17.8859 21.4713 17.8845H33.4716Z" fill="white"/>
<path d="M39.4256 21.5267C38.8947 21.3172 38.4324 20.9659 38.0894 20.5115C37.7477 20.0427 37.563 19.4788 37.5615 18.8997H40.058C40.0711 19.2078 40.2036 19.4989 40.4277 19.7119C40.6563 19.9067 40.9508 20.0074 41.2514 19.9937C41.5443 20.009 41.8338 19.9248 42.0725 19.7551C42.1717 19.6762 42.2506 19.575 42.3029 19.4598C42.3552 19.3447 42.3794 19.2188 42.3734 19.0926C42.3766 18.9833 42.3569 18.8745 42.3157 18.7731C42.2744 18.6717 42.2124 18.58 42.1337 18.5037C41.9633 18.3409 41.7634 18.2117 41.5446 18.123C41.218 17.9919 40.8843 17.8792 40.545 17.7854C40.0213 17.6337 39.5098 17.4428 39.015 17.2143C38.6117 17.0171 38.2619 16.7264 37.995 16.3666C37.6943 15.9406 37.5444 15.4271 37.5692 14.9071C37.551 14.5058 37.6297 14.106 37.7987 13.7412C37.9678 13.3764 38.2222 13.0572 38.5407 12.8105C39.2752 12.2776 40.1699 12.009 41.078 12.0491C42.1388 12.0491 42.9939 12.3029 43.6433 12.8105C43.9643 13.0621 44.2244 13.3823 44.4045 13.7474C44.5846 14.1124 44.68 14.5131 44.6837 14.9198H42.149C42.1482 14.7819 42.1185 14.6456 42.0619 14.5198C42.0052 14.3939 41.9229 14.2812 41.82 14.1888C41.5904 14.0094 41.3031 13.9192 41.0117 13.935C40.763 13.9244 40.519 14.0048 40.3257 14.1609C40.2375 14.2436 40.1689 14.3448 40.1248 14.4572C40.0807 14.5696 40.0622 14.6903 40.0707 14.8106C40.0693 14.9598 40.1095 15.1065 40.187 15.2343C40.2644 15.362 40.376 15.4658 40.5093 15.534C40.9463 15.7662 41.406 15.9534 41.8812 16.0924C42.3982 16.2614 42.9041 16.4623 43.3959 16.694C43.7891 16.8854 44.1335 17.1631 44.4032 17.5062C44.7007 17.9136 44.8508 18.4092 44.829 18.9124C44.8343 19.4376 44.6893 19.9535 44.4108 20.3998C44.1144 20.8605 43.6938 21.229 43.197 21.4633C42.6085 21.7432 41.9621 21.8815 41.31 21.8669C40.6657 21.8758 40.0257 21.7603 39.4256 21.5267Z" fill="white"/>
<path d="M46.2879 15.8897C46.5989 15.3134 47.071 14.8391 47.6471 14.5241C48.2601 14.1987 48.9465 14.0344 49.6411 14.0469C50.5075 14.0187 51.3573 14.2875 52.0483 14.8084C52.7152 15.3374 53.1679 16.0882 53.3233 16.9227H50.8269C50.7541 16.6607 50.5935 16.4314 50.3719 16.2726C50.1502 16.1138 49.8807 16.0351 49.608 16.0496C49.4094 16.0459 49.2129 16.0901 49.0353 16.1785C48.8576 16.2669 48.7042 16.3969 48.588 16.5572C48.3061 16.9706 48.1682 17.4645 48.1953 17.9634C48.1614 18.4682 48.2968 18.9699 48.5803 19.3899C48.6964 19.5504 48.8498 19.6804 49.0275 19.7689C49.2051 19.8573 49.4017 19.9014 49.6003 19.8975C49.8732 19.9125 50.1429 19.834 50.3646 19.6751C50.5864 19.5163 50.7468 19.2866 50.8192 19.0244H53.3157C53.155 19.8534 52.703 20.5985 52.0407 21.126C51.3529 21.6475 50.5053 21.9165 49.6411 21.8875C48.9463 21.9017 48.2595 21.7374 47.6471 21.4103C47.0699 21.0968 46.5975 20.6221 46.2879 20.0447C45.9525 19.4055 45.7858 18.6919 45.8034 17.971C45.7848 17.2476 45.9516 16.5313 46.2879 15.8897Z" fill="white"/>
<path d="M57.9361 14.4351C58.352 14.1932 58.8263 14.0686 59.308 14.0747V16.5444H58.6628C58.1932 16.5091 57.7265 16.6424 57.347 16.92C57.0538 17.1738 56.9084 17.6079 56.9084 18.2373V21.7705H54.5701V14.1559H56.9135V15.425C57.1727 15.0206 57.5227 14.6817 57.9361 14.4351Z" fill="white"/>
<path d="M67.6034 18.5212H62.2968C62.3046 18.9277 62.4689 19.3157 62.7558 19.6051C63.0249 19.8554 63.3821 19.9903 63.7503 19.9807C64.0054 19.9991 64.26 19.9382 64.4788 19.8063C64.6977 19.6745 64.8699 19.4782 64.9718 19.2446H67.4657C67.3404 19.7408 67.1041 20.2024 66.7746 20.595C66.4341 21.0001 66.0049 21.3222 65.52 21.5366C64.9886 21.7701 64.4127 21.8861 63.8319 21.8768C63.1347 21.8906 62.4455 21.7263 61.8302 21.3996C61.2507 21.0894 60.7741 20.6186 60.4583 20.0442C60.1192 19.406 59.9498 18.6922 59.9661 17.9705C59.9484 17.2492 60.1161 16.5354 60.4532 15.8967C60.7646 15.319 61.2387 14.8444 61.8174 14.5312C62.4375 14.2049 63.1307 14.0407 63.8319 14.054C64.5195 14.0406 65.1993 14.2004 65.8082 14.5185C66.377 14.8211 66.8455 15.2813 67.1571 15.8434C67.4932 16.4578 67.6612 17.1493 67.6442 17.8486C67.6436 18.0734 67.63 18.298 67.6034 18.5212ZM65.2446 17.2242C65.2523 17.0447 65.2194 16.8658 65.1483 16.7006C65.0773 16.5354 64.9699 16.3882 64.8341 16.2699C64.5504 16.0288 64.1869 15.9013 63.8141 15.912C63.4517 15.9017 63.098 16.0235 62.8196 16.2546C62.5347 16.5038 62.353 16.8493 62.3096 17.2242H65.2446Z" fill="white"/>
<path d="M76.0488 18.5212H70.7448C70.7516 18.9279 70.916 19.3163 71.2038 19.6051C71.4723 19.8563 71.8299 19.9914 72.1983 19.9807C72.453 19.9986 72.707 19.9374 72.9253 19.8056C73.1436 19.6737 73.3155 19.4778 73.4172 19.2446H75.9136C75.7893 19.7414 75.5539 20.2038 75.2251 20.5975C74.8851 21.0031 74.4558 21.3253 73.9705 21.5392C73.44 21.7727 72.8649 21.8887 72.285 21.8793C71.5877 21.8931 70.8985 21.7288 70.2832 21.4021C69.701 21.0928 69.2224 20.6208 68.9062 20.0442C68.566 19.4065 68.3965 18.6923 68.4141 17.9704C68.3968 17.2496 68.5635 16.5361 68.8986 15.8967C69.211 15.3189 69.686 14.8443 70.2654 14.5312C70.8854 14.2047 71.5786 14.0405 72.2799 14.054C72.9666 14.041 73.6454 14.2008 74.2536 14.5185C74.8231 14.8211 75.2924 15.2812 75.6051 15.8434C75.9401 16.4582 76.108 17.1494 76.0921 17.8486C76.0907 18.0735 76.0762 18.298 76.0488 18.5212ZM73.6951 17.2268C73.7031 17.047 73.67 16.8677 73.5985 16.7024C73.5269 16.5372 73.4188 16.3901 73.282 16.2724C72.996 16.0435 72.6406 15.9175 72.2736 15.9148C71.9066 15.912 71.5494 16.0326 71.2599 16.2572C70.9751 16.5063 70.7933 16.8518 70.7499 17.2268H73.6951Z" fill="white"/>
<path d="M84.1324 14.9401C84.6679 15.5188 84.9356 16.3124 84.9356 17.3209V21.7704H82.6049V17.6356C82.632 17.2041 82.4893 16.779 82.2071 16.4503C81.9182 16.1779 81.5354 16.026 81.1374 16.026C80.7394 16.026 80.3566 16.1779 80.0677 16.4503C79.7855 16.779 79.6428 17.2041 79.6699 17.6356V21.7704H77.3264V14.1558H79.6699V15.171C79.916 14.8278 80.246 14.5526 80.6287 14.3715C81.0532 14.1717 81.5183 14.0718 81.9878 14.0796C82.3864 14.0613 82.7843 14.1286 83.1543 14.2771C83.5244 14.4256 83.858 14.6517 84.1324 14.9401Z" fill="white"/>
<path d="M39.4256 35.5909C38.8941 35.3825 38.4314 35.031 38.0894 34.5756C37.748 34.1067 37.5634 33.5429 37.5615 32.9638H40.058C40.0597 33.1149 40.0924 33.2641 40.1543 33.4022C40.2161 33.5402 40.3057 33.6642 40.4175 33.7665C40.5293 33.8687 40.661 33.9471 40.8044 33.9968C40.9478 34.0465 41.0999 34.0663 41.2514 34.0552C41.5445 34.0722 41.8345 33.9879 42.0725 33.8166C42.1717 33.7378 42.2506 33.6366 42.3029 33.5214C42.3552 33.4063 42.3794 33.2804 42.3734 33.1542C42.3767 33.0452 42.3571 32.9368 42.3158 32.8358C42.2745 32.7348 42.2125 32.6435 42.1337 32.5679C41.9628 32.405 41.763 32.2751 41.5446 32.1846C41.2197 32.053 40.8877 31.9395 40.5501 31.8445C40.0263 31.6921 39.5148 31.5003 39.0201 31.2708C38.6164 31.0754 38.2664 30.7853 38.0001 30.4256C37.699 29.9989 37.5492 29.4845 37.5743 28.9636C37.5565 28.5627 37.6354 28.1634 37.8044 27.7991C37.9734 27.4348 38.2277 27.116 38.5458 26.8696C39.2804 26.3368 40.1751 26.0683 41.0831 26.1081C42.1439 26.1081 42.999 26.3619 43.6484 26.8696C43.9692 27.1208 44.2292 27.4405 44.4093 27.8051C44.5894 28.1698 44.6849 28.57 44.6888 28.9763H42.1541C42.151 28.8377 42.1188 28.7012 42.0595 28.5758C42.0002 28.4503 41.9151 28.3386 41.8098 28.2478C41.5802 28.0685 41.2929 27.9783 41.0015 27.994C40.7528 27.9835 40.5088 28.0638 40.3155 28.2199C40.2274 28.3022 40.1588 28.4029 40.1147 28.5149C40.0706 28.6269 40.0521 28.7472 40.0605 28.8671C40.0588 29.0164 40.0989 29.1632 40.1764 29.291C40.2539 29.4188 40.3656 29.5225 40.4991 29.5905C40.9359 29.8238 41.3956 30.0118 41.871 30.1515C42.3883 30.3187 42.8942 30.5187 43.3857 30.7505C43.7805 30.9485 44.1249 31.2332 44.393 31.583C44.6937 31.9893 44.8474 32.4849 44.829 32.9892C44.8346 33.5145 44.6895 34.0305 44.4108 34.4766C44.1145 34.9381 43.6939 35.3074 43.197 35.5426C42.6074 35.8182 41.9611 35.9521 41.31 35.9335C40.6654 35.9429 40.0252 35.8265 39.4256 35.5909Z" fill="white"/>
<path d="M53.0835 29.0068C53.6139 29.5838 53.8791 30.3774 53.8791 31.3876V35.8371H51.5484V31.7023C51.5756 31.27 51.4329 30.8441 51.1506 30.5145C50.8617 30.242 50.4788 30.0902 50.0809 30.0902C49.6829 30.0902 49.3001 30.242 49.0111 30.5145C48.7288 30.8441 48.5862 31.27 48.6133 31.7023V35.8371H46.2673V25.7375H48.6133V29.2453C48.8621 28.8973 49.1979 28.6199 49.5874 28.4407C50.0194 28.235 50.4933 28.1316 50.9721 28.1387C51.3662 28.1224 51.7592 28.1916 52.1237 28.3415C52.4883 28.4914 52.8158 28.7184 53.0835 29.0068Z" fill="white"/>
<path d="M55.682 27.0678C55.556 26.9556 55.4557 26.8178 55.3879 26.6636C55.3202 26.5095 55.2866 26.3426 55.2893 26.1744C55.2857 26.0038 55.3189 25.8344 55.3866 25.6776C55.4543 25.5208 55.5551 25.3804 55.682 25.2657C55.9577 25.0194 56.3192 24.8901 56.6893 24.9053C57.0554 24.8912 57.4124 25.0206 57.6838 25.2657C57.8103 25.3806 57.9105 25.5212 57.9778 25.6779C58.0451 25.8347 58.0779 26.0039 58.0739 26.1744C58.0772 26.3424 58.044 26.5092 57.9767 26.6634C57.9094 26.8176 57.8095 26.9555 57.6838 27.0678C57.4127 27.3135 57.0557 27.4438 56.6893 27.4308C56.3188 27.4453 55.9573 27.315 55.682 27.0678ZM57.8546 28.2202V35.8348H55.5112V28.2202H57.8546Z" fill="white"/>
<path d="M64.2296 35.8371L61.8989 32.644V35.8371H59.5554V25.7375H61.8989V31.3216L64.2168 28.2225H67.1111L63.9287 32.0424L67.1366 35.8498L64.2296 35.8371Z" fill="white"/>
<path d="M69.3602 35.6062C68.8743 35.4055 68.449 35.0828 68.126 34.6696C67.8277 34.2861 67.6502 33.8233 67.616 33.3396H69.9314C69.9438 33.4668 69.9834 33.59 70.0477 33.7008C70.1119 33.8115 70.1992 33.9073 70.3037 33.9817C70.5375 34.1529 70.8218 34.2422 71.112 34.2355C71.3504 34.2503 71.5874 34.1909 71.7903 34.0655C71.8648 34.0177 71.9259 33.9519 71.9678 33.8742C72.0098 33.7965 72.0312 33.7095 72.03 33.6213C72.0307 33.5155 71.9981 33.4121 71.9368 33.3257C71.8755 33.2392 71.7887 33.174 71.6883 33.139C71.3279 32.9925 70.956 32.8754 70.5765 32.7888C70.1115 32.6861 69.654 32.5521 69.2072 32.3877C68.8402 32.2457 68.5143 32.0155 68.2586 31.7176C67.978 31.3692 67.8364 30.93 67.8608 30.4841C67.8579 30.058 67.9851 29.6411 68.2254 29.2886C68.4932 28.9093 68.8637 28.6135 69.2939 28.4357C69.8259 28.2158 70.3984 28.1095 70.9743 28.1235C71.9357 28.1235 72.6905 28.3596 73.2438 28.8317C73.8 29.3054 74.1455 29.9787 74.2052 30.7049H72.0377C72.0243 30.5825 71.9866 30.464 71.9266 30.3563C71.8666 30.2487 71.7856 30.154 71.6883 30.078C71.4669 29.917 71.1972 29.8356 70.9233 29.847C70.7023 29.8327 70.4824 29.8868 70.2935 30.0018C70.2237 30.0499 70.1672 30.1146 70.1289 30.1899C70.0906 30.2653 70.0718 30.3489 70.0742 30.4333C70.0751 30.5407 70.1091 30.6453 70.1716 30.7329C70.234 30.8204 70.322 30.8869 70.4235 30.9232C70.7751 31.0692 71.1408 31.1789 71.5149 31.2506C71.9851 31.3655 72.4475 31.5096 72.8996 31.6821C73.2642 31.8292 73.5865 32.0637 73.838 32.3649C74.1249 32.7248 74.2733 33.1749 74.2562 33.634C74.2619 34.0624 74.1296 34.4814 73.8788 34.8295C73.6007 35.1985 73.2257 35.484 72.795 35.6544C72.2742 35.8628 71.7166 35.9647 71.1554 35.9539C70.5391 35.964 69.9276 35.8456 69.3602 35.6062Z" fill="white"/>
<path d="M82.4952 29.0068C83.0256 29.5838 83.2908 30.3774 83.2908 31.3876V35.8371H80.9601V31.7023C80.9873 31.27 80.8447 30.8441 80.5623 30.5145C80.2734 30.242 79.8906 30.0902 79.4926 30.0902C79.0946 30.0902 78.7118 30.242 78.4229 30.5145C78.1405 30.8441 77.9979 31.27 78.0251 31.7023V35.8371H75.6816V25.7375H78.0302V29.2453C78.2795 28.8978 78.6152 28.6206 79.0043 28.4407C79.4362 28.235 79.9102 28.1316 80.3889 28.1387C80.7822 28.1231 81.1742 28.1927 81.5378 28.3426C81.9015 28.4924 82.2281 28.719 82.4952 29.0068Z" fill="white"/>
<path d="M84.9152 29.9434C85.1826 29.3842 85.6034 28.9117 86.129 28.5804C86.6423 28.2608 87.2372 28.0951 87.8426 28.1032C88.3354 28.0911 88.8233 28.2038 89.2604 28.4306C89.645 28.6274 89.9692 28.9238 90.1988 29.2885V28.2098H92.5448V35.8244H90.1988V34.766C89.9617 35.1297 89.634 35.4262 89.2477 35.6264C88.81 35.8518 88.3225 35.9644 87.8299 35.9538C87.2277 35.9598 86.6368 35.7914 86.129 35.469C85.6028 35.1318 85.1822 34.6543 84.9152 34.0908C84.6184 33.4394 84.4648 32.7324 84.4648 32.0171C84.4648 31.3018 84.6184 30.5948 84.9152 29.9434ZM89.7143 30.6414C89.5604 30.4827 89.376 30.3565 89.1721 30.2703C88.9681 30.1841 88.7488 30.1397 88.5273 30.1397C88.3057 30.1397 88.0864 30.1841 87.8825 30.2703C87.6785 30.3565 87.4941 30.4827 87.3403 30.6414C87.172 30.8264 87.0423 31.0428 86.9587 31.2781C86.8751 31.5134 86.8392 31.7628 86.8532 32.012C86.8263 32.5197 87.0012 33.0176 87.3403 33.3979C87.493 33.5585 87.6771 33.6864 87.8811 33.7738C88.0852 33.8613 88.3051 33.9063 88.5273 33.9063C88.7495 33.9063 88.9693 33.8613 89.1734 33.7738C89.3775 33.6864 89.5616 33.5585 89.7143 33.3979C90.028 33.0063 90.1988 32.5204 90.1988 32.0196C90.1988 31.5189 90.028 31.0329 89.7143 30.6414Z" fill="white"/>
</g>
<defs>
<clipPath id="clip0_185_6361">
<rect width="102" height="48" fill="white"/>
</clipPath>
</defs>
</svg>
